<svg id="Layer_1" data-name="Layer 1" xmlns="http://www.w3.org/2000/svg" viewBox="0 0 1738.61 1971.25"><defs><style>.cls-1{fill:#ccc;}.cls-2{fill:#9ad76d;}.cls-3{fill:#1a1a1a;}.cls-4{fill:#b4ee5c;}.cls-5{fill:#88cb36;}.cls-6{fill:#539334;}.cls-7{fill:#9b7a64;}.cls-8{fill:#c4ee8c;}.cls-9{fill:#e0ffaa;}.cls-10{fill:#fff;}.cls-11{fill:#b9dae9;}.cls-12{fill:#fcfcfc;}.cls-13{fill:#939393;}.cls-14{fill:#ffb31c;}.cls-15{fill:#ff8c03;}</style></defs><title>guava200_89</title><path class="cls-1" d="M2157.14,1400.56c0,44-142.67,79.66-318.66,79.66s-318.67-35.67-318.67-79.66c0-21.13,33.58-41.39,93.34-56.34s140.81-23.33,225.33-23.33,165.56,8.39,225.33,23.33,93.33,35.21,93.33,56.34Zm0,0" transform="translate(-1071.85 40.08)"/><path class="cls-2" d="M1747.35,1200.19c-10.67,81-52.84,192.57-86.15,188.19s-45.17-123.08-34.51-204.07,48.45-92.48,73.12-89.23,58.2,24.12,47.54,105.11Zm0,0" transform="translate(-1071.85 40.08)"/><path class="cls-3" d="M1702,1078.24a68.94,68.94,0,0,0-55.45,17.29c-17.88,16.24-31.07,43.59-36.73,86.56-5.58,42.37-5.27,93.18.79,135.39,3,21.11,7.4,40,14,55.29s16.29,30.07,34.32,32.44,31.18-9.38,41.54-22.45,19.47-30.17,27.86-49.78c16.78-39.21,30.22-88.21,35.8-130.57,5.66-43,0-72.81-13.07-93.12a69,69,0,0,0-49.08-31Zm-4.44,33.67c8.65,1.14,17.76,4.57,25,15.76s13,32.28,8,70.3c-5.09,38.63-18.06,85.91-33.36,121.65-7.64,17.87-16,32.9-23.25,42.05-5.43,6.85-9.38,8.88-10.45,9.54-.85-.92-4.14-3.9-7.62-11.93-4.63-10.7-8.81-27.39-11.57-46.63-5.53-38.47-5.82-87.5-.74-126.13,5-38,16-56.91,25.89-65.85s19.53-9.9,28.18-8.76Zm0,0" transform="translate(-1071.85 40.08)"/><path class="cls-2" d="M2050.26,1184.31c10.66,81-1.19,199.68-34.51,204.07s-75.48-107.19-86.15-188.19,22.87-101.86,47.54-105.11,62.46,8.23,73.12,89.23Zm0,0" transform="translate(-1071.85 40.08)"/><path class="cls-3" d="M1974.92,1078.24a69,69,0,0,0-49.08,31c-13.07,20.31-18.73,50.15-13.07,93.12,5.58,42.36,19,91.36,35.8,130.58,8.39,19.6,17.49,36.7,27.86,49.77s23.51,24.83,41.54,22.45,27.69-17.12,34.31-32.44,11-34.18,14-55.29c6.06-42.21,6.36-93,.79-135.39-5.66-43-18.85-70.32-36.73-86.56a68.94,68.94,0,0,0-55.45-17.29Zm4.44,33.67c8.65-1.14,18.33-.18,28.18,8.76s20.88,27.83,25.88,65.85c5.09,38.63,4.8,87.66-.73,126.13-2.76,19.24-6.94,35.93-11.57,46.63-3.48,8-6.77,11-7.63,11.93-1.06-.66-5-2.69-10.45-9.54-7.25-9.15-15.6-24.18-23.25-42.05-15.29-35.74-28.26-83-33.35-121.65-5-38,.76-59.11,8-70.3s16.3-14.62,25-15.76Zm0,0" transform="translate(-1071.85 40.08)"/><path class="cls-2" d="M1448.4,810.56c-49.73,64.81-142,140.36-168.7,119.9s22.42-129.17,72.15-194,88.2-55.87,107.94-40.72,38.34,50-11.39,114.8Zm0,0" transform="translate(-1071.85 40.08)"/><path class="cls-3" d="M1470.13,682.29a69,69,0,0,0-56.66-12.75c-23.6,5.12-48.71,22.22-75.09,56.6-26,33.9-51.16,78.06-67,117.65-7.93,19.79-13.59,38.32-15.5,54.89s-.93,34.18,13.5,45.26,31.69,7.46,47.2,1.32,31.94-16.4,49-29.18c34.14-25.56,70.28-61.28,96.3-95.18,26.38-34.38,36.4-63,35.23-87.18a69,69,0,0,0-27-51.43Zm-20.68,27c6.93,5.31,13.1,12.83,13.74,26.12s-4.91,34.44-28.26,64.86c-23.71,30.91-58.59,65.38-89.71,88.68-15.55,11.64-30.3,20.49-41.16,24.78-8.13,3.22-12.57,3-13.82,3-.28-1.21-1.64-5.44-.63-14.13,1.34-11.59,6.06-28.13,13.29-46.17,14.45-36.09,38.71-78.7,62.43-109.61,23.34-30.42,42.34-41.26,55.34-44.08s21.86,1.19,28.79,6.51Zm0,0" transform="translate(-1071.85 40.08)"/><path class="cls-2" d="M2325.1,736.48c49.73,64.81,98.81,173.53,72.15,194s-119-55.09-168.7-119.9-31.13-99.65-11.39-114.8,58.21-24.09,107.94,40.72Zm0,0" transform="translate(-1071.85 40.08)"/><path class="cls-3" d="M2206.82,682.29a69,69,0,0,0-27,51.43c-1.16,24.13,8.86,52.8,35.24,87.18,26,33.91,62.15,69.62,96.29,95.18,17.07,12.78,33.5,23,49,29.18s32.78,9.74,47.21-1.32,15.42-28.68,13.5-45.25-7.58-35.11-15.5-54.9c-15.86-39.59-41-83.75-67-117.65-26.38-34.38-51.48-51.47-75.09-56.6a69,69,0,0,0-56.66,12.75Zm20.68,27c6.92-5.32,15.78-9.33,28.78-6.5s32,13.65,55.35,44.08c23.72,30.9,48,73.51,62.43,109.6,7.22,18,12,34.58,13.29,46.17,1,8.69-.36,12.92-.64,14.13-1.25-.06-5.68.19-13.82-3-10.85-4.3-25.6-13.15-41.16-24.79-31.11-23.3-66-57.77-89.7-88.67-23.36-30.43-28.9-51.58-28.26-64.87s6.81-20.81,13.73-26.12Zm0,0" transform="translate(-1071.85 40.08)"/><path class="cls-3" d="M1748.59,255.28c-42.64.69-84.12,25.61-118.44,69.37h0C1570.94,400.16,1504.73,469,1452.3,549.76s-90.37,174.47-90.37,295c0,233.63,215.53,419.76,476.54,419.77S2315,1078.39,2315,844.76c0-120.53-38-214.21-90.38-295S2106,400.16,2046.8,324.65c-35.42-45.17-78.64-70.28-122.56-69.37-32.21.67-62,15.88-85.75,41.1-24.83-26.3-56.23-41.65-89.9-41.1Zm.88,54.34h0c23.31-.38,46,12.4,65.59,45.61l23.4,39.66,23.41-39.66c19-32.21,41.08-45.14,63.49-45.61S1975.64,322,2004,358.19c61.37,78.26,126.39,146.19,175,221.15s81.61,156.06,81.61,265.42c0,200-186.84,365.42-422.2,365.42s-422.19-165.41-422.19-365.42c0-109.36,33-190.46,81.62-265.42s113.64-142.89,175-221.15c27.5-35.07,54.66-48.22,76.55-48.57Zm0,0" transform="translate(-1071.85 40.08)"/><path class="cls-3" d="M2060.92-15.9c-113.62,0-192,112.43-192,112.43l-12.24,16.32,12.24,16.31s78.42,112.43,192,112.43,192-112.43,192-112.43l12.25-16.31-12.25-16.32s-78.41-112.43-192-112.43Zm0,54.35c54.49,0,108.45,48.33,133.66,74.4-25.21,26.06-79.17,74.39-133.66,74.39s-108.47-48.33-133.68-74.39c25.21-26.07,79.18-74.4,133.68-74.4Zm0,0" transform="translate(-1071.85 40.08)"/><path class="cls-4" d="M2231.21,112.85S2155,214.41,2060.92,214.41s-170.3-101.56-170.3-101.56,76.24-101.57,170.3-101.57,170.29,101.57,170.29,101.57Zm0,0" transform="translate(-1071.85 40.08)"/><path class="cls-5" d="M2231.21,112.85H1890.62s76.24,101.56,170.3,101.56,170.29-101.56,170.29-101.56Zm0,0" transform="translate(-1071.85 40.08)"/><path class="cls-6" d="M2094.2,11.83l-101,101,101,101,9.61-9.61-91.41-91.4,91.41-91.41Zm0,0" transform="translate(-1071.85 40.08)"/><path class="cls-6" d="M2170.07,52.2l-60.65,60.65,60.65,60.64,9.61-9.61-51-51,51-51Zm0,0" transform="translate(-1071.85 40.08)"/><rect class="cls-6" x="818.77" y="146.13" width="340.59" height="13.59"/><path class="cls-3" d="M2060.92,4.49c-99,0-175.73,104.27-175.73,104.27l-3.07,4.09,3.07,4.07S1962,221.2,2060.92,221.2s175.73-104.28,175.73-104.28l3-4.07-3-4.09S2159.86,4.49,2060.92,4.49Zm0,13.58c83.27,0,152.29,83.39,161.37,94.78-9.09,11.38-78.1,94.77-161.37,94.77s-152.29-83.39-161.38-94.77c9.08-11.39,78.1-94.78,161.38-94.78Zm0,0" transform="translate(-1071.85 40.08)"/><path class="cls-3" d="M1845.86-40.08,1705.29,18.15l11.47,25.53a542.36,542.36,0,0,1,47.64,220.25,542.37,542.37,0,0,1-87.58,294.54l45.57,29.61A596.76,596.76,0,0,0,1818.76,264v-.15a596.69,596.69,0,0,0-41.63-216.59L1817,30.7a634,634,0,0,1-28.64,529.94l48.11,25.27a694.16,694.16,0,0,0,79.6-322v-.09A694.14,694.14,0,0,0,1856.6-15.83Zm0,0" transform="translate(-1071.85 40.08)"/><path class="cls-7" d="M1831.76-4.82l-90.21,37.36a569.71,569.71,0,0,1,50,231.37,569.65,569.65,0,0,1-92,309.37h112.81a662.26,662.26,0,0,0,19.34-578.1Zm0,0" transform="translate(-1071.85 40.08)"/><path class="cls-3" d="M1835.28-13.64,1732.48,29l2.87,6.38a562.76,562.76,0,0,1,49.44,228.61,562.91,562.91,0,0,1-90.88,305.64l11.39,7.4a576.38,576.38,0,0,0,93.07-313.06v0a576.15,576.15,0,0,0-47.93-227.67l77.63-32.15a654.61,654.61,0,0,1-21.66,566.06l12,6.32a673.85,673.85,0,0,0,77.26-312.52v0A673.88,673.88,0,0,0,1838-7.58Zm0,0" transform="translate(-1071.85 40.08)"/><path class="cls-2" d="M1389.1,844.76c0-229.89,141.85-349.57,262.44-503.34,63.81-81.37,142.17-75.87,186.93,0,44.77-75.87,123.13-81.37,186.94,0C2146,495.19,2287.85,614.87,2287.85,844.76Zm0,0" transform="translate(-1071.85 40.08)"/><path class="cls-2" d="M2287.85,844.76c0,104.12-47.34,204-131.62,277.6s-198.57,115-317.76,115-233.48-41.36-317.75-115S1389.1,948.88,1389.1,844.76s47.35-204,131.62-277.6,198.57-115,317.75-115,233.48,41.36,317.76,115,131.62,173.48,131.62,277.6Zm0,0" transform="translate(-1071.85 40.08)"/><path class="cls-8" d="M1749,282.45c-32.27.52-66.59,19.56-97.5,59C1530.94,495.19,1389.1,614.88,1389.1,844.76c.19,58.74,15.47,116.69,44.7,169.59,139.14,82.5,299,89.58,424.31,18.78,97.76-55.23,165.24-152.72,187.6-271s-2.23-247.75-68.36-359.84a567.58,567.58,0,0,0-86.72-111.72c-19.8,9.28-37.73,26.42-52.17,50.88-23.08-39.12-55.09-59.53-89.44-59Zm0,0" transform="translate(-1071.85 40.08)"/><path class="cls-9" d="M1707.22,293.29c-19,9.54-37.91,25.46-55.69,48.13-105.85,135-228.09,243.72-256.37,423.79,84.76,34.67,174.6,31.19,247.08-9.58,140.64-79.46,177.53-274.6,82.37-435.87q-8.16-13.58-17.39-26.47Zm0,0" transform="translate(-1071.85 40.08)"/><path class="cls-3" d="M1748.92,275.65c-34.86.57-71,21.08-102.73,61.58-60,76.54-125.78,145-176.79,223.62s-87.09,167.57-87.09,283.91c0,221,204.77,399.39,456.16,399.39s456.17-178.36,456.17-399.39c0-116.34-36.08-205.31-87.09-283.91s-116.76-147.08-176.79-223.62c-32.78-41.81-70.25-62.31-106.1-61.57-33,.69-63.43,19.72-86.2,53.4-23.54-34.81-55.31-54-89.54-53.41Zm.22,13.59c31.59-.51,61.28,18,83.48,55.63l5.85,9.92,5.86-9.92c21.54-36.5,50.14-55,80.61-55.63s64.1,16.81,95.13,56.37c60.56,77.23,126,145.49,176.08,222.63s84.91,163,84.91,276.52c0,212.62-197.61,385.8-442.59,385.8s-442.57-173.18-442.57-385.8c0-113.55,34.84-199.37,84.9-276.52s115.52-145.4,176.08-222.63c30.06-38.33,62.59-55.89,92.26-56.37Zm0,0" transform="translate(-1071.85 40.08)"/><path class="cls-10" d="M1681.2,1039.77a32.72,32.72,0,0,1-32.8-32.8V970c0-105,85.1-190.07,190.07-190.07S2028.55,865,2028.55,970v37a32.72,32.72,0,0,1-32.8,32.8Zm0,0" transform="translate(-1071.85 40.08)"/><path class="cls-11" d="M1875.61,1039.77l-.07-.08s32.26-62,0-119.21c40.26-63.6,4.83-135.94,4.83-135.94,84.8,19.09,148.16,94.85,148.16,185.42v37a32.72,32.72,0,0,1-32.81,32.79Zm0,0" transform="translate(-1071.85 40.08)"/><path class="cls-3" d="M1968.88,1039.77v-.08s37-42.53,0-87.68c42.58-39.57,2.91-117.53,2.91-117.53A189.5,189.5,0,0,1,2028.58,970v37a32.72,32.72,0,0,1-32.8,32.79Zm0,0" transform="translate(-1071.85 40.08)"/><path class="cls-3" d="M1708.1,1039.77v-.08s-37-42.53,0-87.68c-42.59-39.57-2.91-117.53-2.91-117.53A189.46,189.46,0,0,0,1648.4,970v37a32.72,32.72,0,0,0,32.8,32.79Zm0,0" transform="translate(-1071.85 40.08)"/><path class="cls-3" d="M1838.47,773.1c-108.64,0-196.86,88.21-196.86,196.86v37a39.66,39.66,0,0,0,39.59,39.6h314.55a39.66,39.66,0,0,0,39.59-39.6V970c0-108.65-88.22-196.86-196.87-196.86Zm0,13.58A183.18,183.18,0,0,1,2021.76,970v37a25.8,25.8,0,0,1-26,26H1681.2a25.81,25.81,0,0,1-26-26V970a183.18,183.18,0,0,1,183.28-183.28Zm0,0" transform="translate(-1071.85 40.08)"/><path class="cls-3" d="M1694.08,601.29a69.84,69.84,0,0,1,70,70v35.07a70,70,0,1,1-140,0V671.28a69.84,69.84,0,0,1,70-70Zm0,0" transform="translate(-1071.85 40.08)"/><path class="cls-10" d="M1734.81,651.47a22.57,22.57,0,1,1-6.61-16,22.59,22.59,0,0,1,6.61,16Zm0,0" transform="translate(-1071.85 40.08)"/><path class="cls-3" d="M1982.88,601.29a69.84,69.84,0,0,0-70,70V729.1h140V671.28a69.84,69.84,0,0,0-70-70Zm0,0" transform="translate(-1071.85 40.08)"/><path class="cls-10" d="M2023.62,651.47a22.6,22.6,0,1,1-22.6-22.59,22.59,22.59,0,0,1,22.6,22.59Zm0,0" transform="translate(-1071.85 40.08)"/><path class="cls-12" d="M1071.85,1741q0-15.45,9-24.44t24.45-9h118.64a39.33,39.33,0,0,1,4.31,10.43,42.8,42.8,0,0,1,2.15,13.66q0,13.66-6.1,19.41-5.76,5.76-15.47,5.75H1133v33.44h80.89a38.92,38.92,0,0,1,4.31,10.42,39.68,39.68,0,0,1,2.16,13.3q0,13.66-5.75,19.42t-15.46,5.75H1133v37.74h92.39a39.13,39.13,0,0,1,4.32,10.43,43.17,43.17,0,0,1,2.15,13.66q0,13.66-6.11,19.77-5.74,5.76-15.46,5.76h-105q-15.46,0-24.45-9t-9-24.45Zm0,0" transform="translate(-1071.85 40.08)"/><path class="cls-12" d="M1323.49,1925.06a83.13,83.13,0,0,1-11.5,2.16,111.62,111.62,0,0,1-15.82,1.07,87.86,87.86,0,0,1-14.38-1.07,24,24,0,0,1-10.42-4.32,22.25,22.25,0,0,1-6.83-8.63q-2.16-5.74-2.16-14.74V1791.69a31,31,0,0,1,2.88-14,34.71,34.71,0,0,1,9-10.79,60.27,60.27,0,0,1,14-8.27,138.53,138.53,0,0,1,18.34-6.83,134.85,134.85,0,0,1,20.13-4.31,122.33,122.33,0,0,1,20.85-1.8q17.25,0,27.32,6.83Q1385,1759,1385,1774.07a36.4,36.4,0,0,1-1.44,10.06,46.9,46.9,0,0,1-3.59,8.63q-7.56,0-15.46.72t-15.46,2.16q-7.55,1.44-14.38,3.23a55.58,55.58,0,0,0-11.15,3.6Zm0,0" transform="translate(-1071.85 40.08)"/><path class="cls-12" d="M1467.65,1925.06a83.13,83.13,0,0,1-11.5,2.16,111.62,111.62,0,0,1-15.82,1.07,87.77,87.77,0,0,1-14.38-1.07,24,24,0,0,1-10.42-4.32,22.25,22.25,0,0,1-6.83-8.63q-2.16-5.74-2.16-14.74V1791.69a31,31,0,0,1,2.88-14,34.71,34.71,0,0,1,9-10.79,60.27,60.27,0,0,1,14-8.27,138,138,0,0,1,18.34-6.83,134.85,134.85,0,0,1,20.13-4.31,122.33,122.33,0,0,1,20.85-1.8q17.25,0,27.32,6.83,10.07,6.46,10.07,21.57a36.4,36.4,0,0,1-1.44,10.06,46.9,46.9,0,0,1-3.59,8.63q-7.56,0-15.46.72t-15.46,2.16q-7.54,1.44-14.38,3.23a55.37,55.37,0,0,0-11.15,3.6Zm0,0" transform="translate(-1071.85 40.08)"/><path class="cls-12" d="M1728.29,1838.06q0,22.29-6.83,39.9a80.58,80.58,0,0,1-48.89,47.1q-17.27,6.11-38.47,6.11t-38.47-6.47a88.2,88.2,0,0,1-29.84-18.34,85.65,85.65,0,0,1-19-29.48q-6.83-17.25-6.83-38.82,0-21.21,6.83-38.47a82.11,82.11,0,0,1,19-29.12,85.53,85.53,0,0,1,29.84-18.69q17.26-6.46,38.47-6.47t38.47,6.83a81.56,81.56,0,0,1,29.47,18.69,79.68,79.68,0,0,1,19.42,29.12,102.8,102.8,0,0,1,6.83,38.11Zm-125.82,0q0,21.93,8.26,33.79,8.64,11.51,23.73,11.51t23-11.87q8.27-11.87,8.27-33.43t-8.27-33.07q-8.28-11.87-23.37-11.87T1610.73,1805q-8.26,11.49-8.26,33.07Zm0,0" transform="translate(-1071.85 40.08)"/><path class="cls-12" d="M1819.24,1925.06a83.13,83.13,0,0,1-11.5,2.16,111.83,111.83,0,0,1-15.82,1.07,87.77,87.77,0,0,1-14.38-1.07,24,24,0,0,1-10.42-4.32,22.36,22.36,0,0,1-6.84-8.63q-2.15-5.74-2.15-14.74V1791.69a31.17,31.17,0,0,1,2.87-14,34.88,34.88,0,0,1,9-10.79,60.27,60.27,0,0,1,14-8.27,138,138,0,0,1,18.34-6.83,134.85,134.85,0,0,1,20.13-4.31,122.33,122.33,0,0,1,20.85-1.8q17.25,0,27.32,6.83,10.06,6.46,10.07,21.57a36.4,36.4,0,0,1-1.44,10.06,46.9,46.9,0,0,1-3.59,8.63q-7.56,0-15.47.72t-15.45,2.16q-7.55,1.44-14.38,3.23a55.37,55.37,0,0,0-11.15,3.6Zm0,0" transform="translate(-1071.85 40.08)"/><path class="cls-12" d="M2061.9,1709.36a113.76,113.76,0,0,1,15.46-3.6,104.41,104.41,0,0,1,16.18-1.43,68,68,0,0,1,15.82,1.79,38.06,38.06,0,0,1,14,5.4,26.08,26.08,0,0,1,9.7,10.06q3.6,6.48,3.6,16.18v95.63h32a65.34,65.34,0,0,1,4.32,10.42,42.9,42.9,0,0,1,2.16,13.66q0,13.66-6.12,19.41t-15.45,5.76h-16.9v42.42q-4,.72-11.86,1.8a85.35,85.35,0,0,1-15.1,1.43,121.13,121.13,0,0,1-14-.71,26.68,26.68,0,0,1-10.43-3.24,18.52,18.52,0,0,1-6.11-7.91q-2.16-5-2.16-13.66v-20.13h-90.23a42.09,42.09,0,0,1-14.38-12.58q-5.76-8.64-5.75-20.86a71.42,71.42,0,0,1,1.8-15.09,39,39,0,0,1,6.1-14.39Zm18.34,56.44h-1.08l-47.81,67.59h48.89Zm0,0" transform="translate(-1071.85 40.08)"/><path class="cls-12" d="M2324.34,1816.13q0-31.64-9.35-48.89-9-17.25-25.88-17.26t-25.89,17.26q-8.62,17.25-8.62,48.89t8.62,49.25q9,17.25,25.89,17.26t25.88-17.26q9.35-17.61,9.35-49.25Zm61.47,0q0,27.67-7.19,49.25t-20.13,36.31a82.35,82.35,0,0,1-30.56,21.93,96.64,96.64,0,0,1-38.46,7.55,100.24,100.24,0,0,1-39.19-7.55,86.5,86.5,0,0,1-30.56-21.93q-12.58-14.75-19.77-36.31-6.82-21.57-6.83-49.25t6.83-48.89q7.18-21.57,19.77-36a84.58,84.58,0,0,1,30.56-22.29,100.24,100.24,0,0,1,39.19-7.55,96.64,96.64,0,0,1,38.46,7.55,80.62,80.62,0,0,1,30.56,22.29q12.95,14.39,20.13,36,7.2,21.21,7.19,48.89Zm0,0" transform="translate(-1071.85 40.08)"/><path class="cls-12" d="M2503,1709.36a113.41,113.41,0,0,1,15.46-3.6,104.29,104.29,0,0,1,16.17-1.43,68,68,0,0,1,15.82,1.79,37.92,37.92,0,0,1,14,5.4,26.11,26.11,0,0,1,9.71,10.06q3.58,6.48,3.59,16.18v95.63h32a65.42,65.42,0,0,1,4.31,10.42,42.9,42.9,0,0,1,2.16,13.66q0,13.66-6.11,19.41t-15.46,5.76h-16.9v42.42q-3.95.72-11.86,1.8a85.17,85.17,0,0,1-15.1,1.43,121.37,121.37,0,0,1-14-.71,26.63,26.63,0,0,1-10.42-3.24,18.54,18.54,0,0,1-6.12-7.91q-2.15-5-2.15-13.66v-20.13h-90.24a42.18,42.18,0,0,1-14.38-12.58q-5.74-8.64-5.75-20.86a71.42,71.42,0,0,1,1.8-15.09,39.15,39.15,0,0,1,6.11-14.39Zm18.33,56.44h-1.08l-47.81,67.59h48.89Zm0,0" transform="translate(-1071.85 40.08)"/><path class="cls-3" d="M2554.09,407l-11.78,7.16a176.58,176.58,0,0,0-71.25,83v0l0,0a176.36,176.36,0,0,0,8.71,152.25l-163.59,395c-23.18,55.95,3.66,120.77,59.62,143.95s120.78-3.67,144-59.63L2683.3,733.85a176.34,176.34,0,0,0,113.83-101.57v0l0,0a176.57,176.57,0,0,0,8.26-109.07l-3.27-13.38-105-43.5-31.87,76.93-38-15.74,31.86-76.93Zm5.6,61.14,28.43,11.78-14.59,35.25c-9.39,22.66,1.75,49.57,24.42,59l55,22.8c22.67,9.39,49.57-1.76,59-24.42l14.6-35.25L2755,549.05a121.44,121.44,0,0,1-97,135.39l-14.24,2.83L2469.51,1108c-12,29-43.93,42.22-72.94,30.21s-42.23-43.93-30.21-72.94l174.27-420.73-8.06-12.07a121.42,121.42,0,0,1,27.12-164.26Zm0,0" transform="translate(-1071.85 40.08)"/><path class="cls-1" d="M2626.34,583.45a82.83,82.83,0,0,1,44.92,108.45l-176.64,426.45a83,83,0,1,1-153.37-63.53l176.64-426.45a82.82,82.82,0,0,1,108.45-44.92Zm0,0" transform="translate(-1071.85 40.08)"/><path class="cls-3" d="M2436.91,1097.8a21.82,21.82,0,1,1,0-16.7,21.82,21.82,0,0,1,0,16.7Zm0,0" transform="translate(-1071.85 40.08)"/><path class="cls-1" d="M2556.43,437.4A149.32,149.32,0,1,0,2779,529.6l-67.18-27.83-25,60.36a17.92,17.92,0,0,1-23.45,9.72l-55-22.81a17.91,17.91,0,0,1-9.72-23.45l25-60.35Zm0,0" transform="translate(-1071.85 40.08)"/><path class="cls-10" d="M2711.85,501.77l-25,60.36a17.91,17.91,0,0,1-23.45,9.71L2608.34,549a17.92,17.92,0,0,1-9.71-23.45l3.37-8.13-115.72,66.81A149.25,149.25,0,0,0,2510,647.5L2477,727,2782.5,550.64a148.44,148.44,0,0,0-3.48-21Zm0,0" transform="translate(-1071.85 40.08)"/><path class="cls-3" d="M2555.85,429.81l-2.95,1.79a156,156,0,0,0-63,73.39h0a156,156,0,0,0,12.53,143L2335,1052.23A89.8,89.8,0,0,0,2500.89,1121L2668.3,716.79a156,156,0,0,0,110-92.3v0h0a156.12,156.12,0,0,0,7.31-96.47l-.82-3.35-76.63-31.74-27.61,66.63a11,11,0,0,1-14.57,6l-55-22.81a11,11,0,0,1-6-14.57l27.6-66.63Zm1.32,15.25,57.58,23.85L2592.35,523a24.85,24.85,0,0,0,13.39,32.33l55.05,22.8a24.84,24.84,0,0,0,32.33-13.39l22.4-54.08,57.56,23.84a142.43,142.43,0,0,1-7.32,84.78h0A142.48,142.48,0,0,1,2662,704.42l-3.57.71-170.07,410.61a76.21,76.21,0,1,1-140.82-58.32l170.1-410.67-2-3a142.48,142.48,0,0,1-13.2-133.53h0a142.36,142.36,0,0,1,54.74-65.13Zm0,0" transform="translate(-1071.85 40.08)"/><path class="cls-13" d="M2585.68,681.61c-19.65-8.14-40.14.34-48.28,20L2429.87,961.22c-8.15,19.65.34,40.14,20,48.28s40.15-.35,48.29-20l107.53-259.61c8.14-19.65-.35-40.14-20-48.28Zm0,0" transform="translate(-1071.85 40.08)"/><path class="cls-3" d="M2588.28,675.33c-22.74-9.42-47.74.94-57.16,23.68L2423.58,958.62a43.19,43.19,0,0,0,23.68,57.15c22.74,9.43,47.75-.93,57.16-23.67L2612,732.49c9.42-22.73-.93-47.74-23.67-57.16Zm-5.2,12.55c16.57,6.87,23.18,22.84,16.32,39.41L2491.87,986.9c-6.86,16.57-22.84,23.19-39.41,16.32s-23.18-22.84-16.32-39.4l107.53-259.61c6.87-16.57,22.84-23.19,39.41-16.33Zm0,0" transform="translate(-1071.85 40.08)"/><path class="cls-3" d="M1820.51,43.87c-46.67,0-85.09,38.42-85.09,85.1V394h54.34V129c0-17.51,13.25-30.75,30.75-30.75h35.93c17.5,0,30.75,13.24,30.75,30.75V394h54.35V129c0-46.68-38.43-85.1-85.1-85.1Zm0,0" transform="translate(-1071.85 40.08)"/><path class="cls-3" d="M1838.47,57.51c-132.58,0-240.64,108.07-240.64,240.66v61.34c0,33.68,28,61.63,61.63,61.63h358c33.67,0,61.64-27.95,61.64-61.63V298.17c0-132.59-108.07-240.66-240.66-240.66Zm0,54.35a185.9,185.9,0,0,1,186.31,186.31v61.34c0,4.51-2.78,7.28-7.29,7.28h-358c-4.51,0-7.29-2.77-7.29-7.28V298.17a185.89,185.89,0,0,1,186.3-186.31Zm0,0" transform="translate(-1071.85 40.08)"/><path class="cls-3" d="M1631.39,286.4c-39.54,0-72.23,32.69-72.23,72.24v4.28c0,85.88,70,155.87,155.87,155.87h246.89c85.89,0,155.87-70,155.87-155.87v-4.28c0-39.55-32.68-72.24-72.23-72.24Zm0,54.36h414.17c10.38,0,17.89,7.5,17.89,17.88v4.28c0,56.71-44.82,101.52-101.53,101.52H1715c-56.72,0-101.52-44.81-101.52-101.52v-4.28c0-10.38,7.5-17.88,17.88-17.88Zm0,0" transform="translate(-1071.85 40.08)"/><path class="cls-14" d="M1631.39,313.58a45,45,0,0,0-45.06,45.06v4.28A128.41,128.41,0,0,0,1715,491.61h246.89a128.41,128.41,0,0,0,128.7-128.69v-4.28a45,45,0,0,0-45.06-45.06Zm0,0" transform="translate(-1071.85 40.08)"/><path class="cls-3" d="M1631.39,306.79a51.88,51.88,0,0,0-51.85,51.85v4.28A135.34,135.34,0,0,0,1715,498.41h246.89a135.34,135.34,0,0,0,135.49-135.49v-4.28a51.88,51.88,0,0,0-51.85-51.85Zm0,13.58h414.17a38,38,0,0,1,38.26,38.27v4.28a121.48,121.48,0,0,1-121.9,121.9H1715a121.48,121.48,0,0,1-121.9-121.9v-4.28a38,38,0,0,1,38.26-38.27Zm0,0" transform="translate(-1071.85 40.08)"/><path class="cls-14" d="M1709.86,421.82H1967a84.72,84.72,0,0,0,84.91-84.91l.09-38.74c0-117.91-95.58-213.48-213.48-213.48S1625.2,180.26,1625,298.17l-.06,38.74a84.74,84.74,0,0,0,84.93,84.91Zm0,0" transform="translate(-1071.85 40.08)"/><path class="cls-10" d="M1721.64,119.52A213.71,213.71,0,0,0,1625,298.16l-.07,38.76a84.66,84.66,0,0,0,39.55,71.82l.06-125.95c.1-63.07,21.74-120.44,57.1-163.27Zm0,0" transform="translate(-1071.85 40.08)"/><path class="cls-15" d="M1903.18,94.69A57.7,57.7,0,0,1,1914.36,129V421.82H1967a84.72,84.72,0,0,0,84.91-84.9l.09-38.76c0-95.34-62.51-176.07-148.77-203.47Zm0,0" transform="translate(-1071.85 40.08)"/><path class="cls-3" d="M1838.47,77.89c-121.57,0-220,98.71-220.27,220.26l-.07,38.76a91.67,91.67,0,0,0,91.73,91.7H1967a91.65,91.65,0,0,0,91.7-91.69h0l.09-38.75c0-121.57-98.7-220.27-220.27-220.27Zm0,13.59a206.58,206.58,0,0,1,206.68,206.69l-.09,38.73v0A77.79,77.79,0,0,1,1967,415H1709.86a77.82,77.82,0,0,1-78.14-78.1v0l.07-38.74c.2-114.24,92.45-206.69,206.68-206.69Zm0,0" transform="translate(-1071.85 40.08)"/><path class="cls-14" d="M1820.51,71A57.8,57.8,0,0,0,1762.59,129V394h151.77V129A57.8,57.8,0,0,0,1856.44,71Zm0,0" transform="translate(-1071.85 40.08)"/><rect class="cls-10" x="714.84" y="158.93" width="13.59" height="281.34"/><path class="cls-3" d="M1820.51,64.25A64.72,64.72,0,0,0,1755.8,129V421.82h13.58V129a50.87,50.87,0,0,1,51.13-51.13h35.93A50.87,50.87,0,0,1,1907.57,129V421.82h13.58V129a64.72,64.72,0,0,0-64.71-64.72Zm0,0" transform="translate(-1071.85 40.08)"/></svg>